<?xml version="1.0" standalone="no"?>
<!DOCTYPE svg PUBLIC "-//W3C//DTD SVG 20010904//EN"
 "http://www.w3.org/TR/2001/REC-SVG-20010904/DTD/svg10.dtd">
<svg version="1.0" xmlns="http://www.w3.org/2000/svg"
 width="128.000000pt" height="128.000000pt" viewBox="0 0 128.000000 128.000000"
 preserveAspectRatio="xMidYMid meet">
<metadata>
Created by potrace 1.14, written by Peter Selinger 2001-2017
</metadata>
<g transform="translate(0.000000,128.000000) scale(0.100000,-0.100000)"
fill="#000000" stroke="none">
<path d="M360 1131 c0 -7 9 -26 21 -42 15 -21 20 -40 16 -62 -5 -35 8 -83 29
-108 8 -8 14 -22 15 -30 0 -8 13 -24 29 -36 25 -20 29 -21 34 -6 4 11 -4 28
-25 49 -22 22 -33 44 -34 67 -1 19 -6 41 -11 48 -5 8 -9 20 -10 27 -3 18 -64
107 -64 93z"/>
<path d="M901 1132 c0 -7 -14 -30 -30 -53 -17 -22 -28 -46 -25 -54 3 -7 1 -16
-5 -20 -6 -3 -11 -17 -11 -31 0 -32 -16 -61 -48 -89 -22 -19 -24 -25 -14 -38
11 -13 16 -13 35 7 40 41 78 128 71 165 -5 25 -2 39 15 62 12 17 20 38 18 47
-3 9 -5 11 -6 4z"/>
<path d="M510 1050 c0 -5 7 -10 16 -10 17 0 74 -31 74 -40 0 -3 -9 -6 -21 -7
-31 -3 -49 -22 -49 -54 0 -35 13 -43 42 -28 29 16 106 12 134 -6 21 -13 23
-13 32 14 12 34 0 58 -36 72 l-27 11 24 19 c13 10 18 19 12 19 -5 0 -20 -10
-31 -22 -26 -29 -59 -31 -79 -7 -19 23 -91 54 -91 39z"/>
<path d="M744 1049 c-16 -7 -16 -8 6 -7 14 0 36 -4 49 -8 16 -5 22 -4 18 3 -9
15 -49 21 -73 12z"/>
<path d="M460 1040 c0 -5 6 -10 14 -10 8 0 18 5 21 10 3 6 -3 10 -14 10 -12 0
-21 -4 -21 -10z"/>
<path d="M43 1030 c-27 -11 -26 -8 -8 -83 9 -39 26 -73 52 -104 21 -26 43 -53
48 -60 6 -7 40 -16 79 -19 38 -3 85 -12 105 -19 38 -13 60 -13 129 -1 38 7 42
11 42 37 0 24 -9 34 -60 66 -34 21 -91 61 -127 89 -64 51 -179 105 -218 103
-11 0 -30 -4 -42 -9z"/>
<path d="M1102 1015 c-35 -14 -89 -46 -119 -71 -31 -24 -86 -62 -123 -84 -50
-29 -70 -47 -75 -67 -8 -32 13 -53 54 -54 14 0 35 -2 46 -5 11 -2 40 3 65 11
25 7 74 16 110 19 68 6 76 12 144 101 24 31 59 152 46 160 -27 17 -90 12 -148
-10z"/>
<path d="M584 894 c-54 -24 -67 -41 -79 -103 -2 -12 3 -43 11 -70 11 -38 27
-61 67 -97 46 -41 48 -44 15 -25 l-37 22 -16 -25 c-44 -66 -56 -202 -27 -305
16 -58 40 -94 91 -137 l31 -25 48 48 c57 57 85 138 84 245 -1 107 -37 200 -76
190 -17 -4 -15 0 11 24 30 27 63 103 63 143 0 87 -105 152 -186 115z"/>
<path d="M442 730 c-12 -5 -44 -12 -70 -14 -71 -7 -117 -30 -132 -66 -12 -28
-11 -34 7 -51 16 -16 34 -20 103 -20 l83 -1 34 38 c40 45 49 74 33 103 -12 23
-23 25 -58 11z"/>
<path d="M772 712 c-12 -34 9 -79 50 -111 21 -17 40 -21 104 -21 66 0 81 3
100 21 22 20 22 24 8 50 -16 32 -62 55 -127 64 -23 3 -58 10 -77 15 -48 13
-47 14 -58 -18z"/>
<path d="M347 552 c-14 -3 -17 -10 -13 -27 4 -17 -2 -33 -20 -54 -18 -22 -22
-31 -11 -31 8 0 23 12 32 28 10 15 29 38 42 51 36 37 29 45 -30 33z"/>
<path d="M879 542 c16 -29 90 -107 96 -100 3 3 -5 18 -19 33 -18 19 -24 35
-20 50 4 17 0 24 -18 29 -41 10 -50 8 -39 -12z"/>
<path d="M473 543 c-7 -3 -13 -10 -13 -16 0 -7 -14 -25 -31 -41 -27 -26 -30
-34 -25 -69 4 -27 1 -46 -8 -56 -36 -42 -24 -174 17 -185 15 -4 16 -2 6 10
-10 12 -9 21 6 47 12 20 19 50 19 82 0 27 3 53 8 56 5 3 10 26 12 50 1 24 10
61 19 81 17 37 13 49 -10 41z"/>
<path d="M780 533 c0 -10 7 -31 15 -47 8 -15 15 -46 15 -67 0 -21 4 -40 10
-44 5 -3 9 -30 9 -59 -1 -35 5 -63 16 -80 9 -14 15 -33 11 -41 -3 -8 0 -15 7
-15 7 0 19 19 27 43 17 46 8 125 -15 139 -8 5 -10 25 -7 57 4 44 2 51 -22 66
-14 10 -26 23 -26 31 0 7 -9 18 -20 24 -17 9 -20 8 -20 -7z"/>
</g>
</svg>
